<svg width="168" height="48" viewBox="0 0 168 48" fill="none" xmlns="http://www.w3.org/2000/svg">
<g clip-path="url(#clip0_290_5347)">
<path d="M163.64 7.66172C162.923 7.66172 162.223 7.45364 161.628 7.06381C161.032 6.67397 160.568 6.11989 160.294 5.47161C160.02 4.82334 159.948 4.11 160.088 3.4218C160.227 2.7336 160.572 2.10145 161.079 1.60528C161.585 1.10912 162.231 0.771225 162.933 0.634333C163.636 0.497441 164.364 0.567699 165.026 0.836222C165.687 1.10474 166.253 1.55947 166.651 2.1429C167.049 2.72633 167.261 3.41226 167.261 4.11394C167.26 5.0545 166.878 5.95619 166.199 6.62126C165.52 7.28634 164.6 7.66051 163.64 7.66172ZM163.64 0.812727C162.971 0.812727 162.318 1.00688 161.762 1.37062C161.207 1.73437 160.773 2.25137 160.518 2.85626C160.262 3.46114 160.195 4.12674 160.325 4.76889C160.456 5.41103 160.778 6.00088 161.25 6.46384C161.723 6.9268 162.325 7.24208 162.98 7.36981C163.636 7.49754 164.315 7.43198 164.933 7.18143C165.55 6.93088 166.078 6.50658 166.449 5.9622C166.821 5.41782 167.019 4.7778 167.019 4.12307C167.019 3.68775 166.933 3.25658 166.763 2.85416C166.594 2.45175 166.345 2.08598 166.031 1.77774C165.717 1.4695 165.345 1.22482 164.934 1.05767C164.524 0.890531 164.084 0.804195 163.64 0.803595V0.812727Z" fill="#95C11F"/>
<path d="M162.929 2.76228V3.75767H163.824C163.96 3.76466 164.095 3.74446 164.223 3.69831C164.301 3.66072 164.365 3.60039 164.407 3.5256C164.448 3.4508 164.466 3.3652 164.456 3.28052C164.468 3.19033 164.452 3.09869 164.41 3.01734C164.369 2.93598 164.303 2.86864 164.223 2.82392C164.101 2.77334 163.97 2.75069 163.838 2.75771L162.929 2.76228ZM164.621 2.21436C164.762 2.27077 164.886 2.35922 164.985 2.47234C165.067 2.56488 165.133 2.66972 165.18 2.78283C165.23 2.90707 165.255 3.03971 165.253 3.17322C165.252 3.35492 165.205 3.5336 165.118 3.69374C165.022 3.86661 164.86 3.99542 164.668 4.05217C164.822 4.1052 164.952 4.20939 165.036 4.34668C165.121 4.52736 165.158 4.72583 165.146 4.92428V5.17312C165.142 5.28842 165.149 5.40382 165.166 5.51786C165.174 5.5609 165.191 5.60188 165.216 5.63809C165.241 5.6743 165.273 5.70491 165.311 5.72789V5.8215H164.442C164.418 5.73931 164.4 5.6731 164.39 5.62287C164.37 5.51748 164.359 5.41053 164.358 5.30326V4.95852C164.376 4.79019 164.329 4.62123 164.225 4.48594C164.089 4.39355 163.924 4.35148 163.759 4.36723H162.943V5.81921H162.172V2.11848H164.036C164.244 2.11394 164.451 2.14643 164.647 2.21436H164.621ZM33.1843 2.87415V14.5905C30.7141 12.3797 27.4926 11.1484 24.1467 11.1363C6.37444 11.1363 6.37444 37.5574 24.1467 37.5574C27.489 37.5485 30.7097 36.3288 33.189 34.1329L33.2053 45.9726C29.59 47.4274 25.6647 47.9883 21.7758 47.6056C17.8869 47.2229 14.1539 45.9085 10.9062 43.7783C7.65852 41.6481 4.99592 38.7676 3.15334 35.391C1.31076 32.0143 0.344846 28.2453 0.34082 24.4165C0.34082 11.7048 10.4574 0.556906 23.7249 0.556906C26.9876 0.556906 30.2083 1.65731 33.1913 2.87415H33.1843ZM71.1712 43.5069V47.63H81.8238L81.8541 24.001C81.8541 17.7832 79.3327 11.8201 74.8447 7.42352C70.3566 3.0269 64.2695 0.556906 57.9224 0.556906C51.5753 0.556906 45.4882 3.0269 41.0001 7.42352C36.512 11.8201 33.9906 17.7832 33.9906 24.001C33.9906 42.6736 55.3052 53.8763 71.1712 43.5069ZM44.7785 24.2818C44.7785 6.83971 71.8004 6.83971 71.8004 24.2818C71.8004 41.7239 44.7785 41.7444 44.7785 24.2818ZM156.653 43.5069V47.63H167.306L167.336 24.001C167.336 17.7829 164.815 11.8195 160.326 7.42271C155.838 3.02588 149.751 0.555764 143.403 0.555764C137.056 0.555764 130.968 3.02588 126.48 7.42271C121.992 11.8195 119.47 17.7829 119.47 24.001C119.47 42.6736 140.785 53.8763 156.651 43.5069H156.653ZM130.261 24.2818C130.261 6.83971 157.282 6.83971 157.282 24.2818C157.282 41.7239 130.261 41.7444 130.261 24.2818ZM98.9319 28.4871C91.3322 26.51 84.5831 25.2909 84.5831 14.4444C84.5831 5.38088 91.9008 1.41075 100.109 0.161948C105.439 -0.648516 111.062 1.63676 113.602 3.12984V12.5997C111.16 11.1043 109.174 9.83272 103.374 9.17522C99.8314 8.77569 95.9325 10.9377 95.9325 14.6544C95.9325 18.3711 101.596 19.4236 106.378 20.9555C112.842 23.0262 118.422 26.8913 118.391 33.8978C118.381 35.9922 117.844 38.0518 116.828 39.8946C115.811 41.7374 114.347 43.3066 112.565 44.4635C108.347 47.1551 103.288 48.0889 97.0954 47.9725C92.1641 47.8789 88.2722 46.5273 84.7439 45.3242V33.0987C88.5239 35.7995 90.7286 37.651 95.8743 38.062C100.486 38.4318 106.466 37.8337 106.375 33.4846C106.303 30.0098 101.703 29.2154 98.9342 28.4962L98.9319 28.4871Z" fill="#95C11F"/>
</g>
<defs>
<clipPath id="clip0_290_5347">
<rect width="167" height="48" fill="white" transform="translate(0.333496)"/>
</clipPath>
</defs>
</svg>
