<svg width="189" height="58" viewBox="0 0 189 58" fill="none" xmlns="http://www.w3.org/2000/svg">
<g clip-path="url(#clip0_290_5339)">
<path d="M157.375 10.0521H172.399C177.926 26.001 189 57.9506 189 57.9506H175.549L172.872 51.6901H156.615L154.479 58H141.363L141.278 57.9298L141.265 57.87L141.309 57.6257L157.252 10.2782L157.373 10.0521H157.375ZM165.044 26.1855L164.9 26.1985L160.652 39.2652H169.012L165.046 26.1855H165.044Z" fill="black"/>
<path d="M37.4531 57.974H23.9999C20.0346 50.939 16.3391 43.4025 12.9958 35.9335C12.9958 35.9335 12.8981 57.6855 12.8981 57.9662H0V10.1483C0.467714 10.0001 12.1349 9.97933 12.9675 10.1301C12.9778 16.4348 12.988 22.755 13.0009 29.0779C13.0549 29.0909 13.1063 29.1065 13.1602 29.1195C16.4445 22.7654 19.7288 16.4114 23.0208 10.0443H36.9648C36.844 10.3146 36.7515 10.5407 36.6461 10.759C33.2873 17.7679 29.9337 24.7821 26.562 31.7833C26.3436 32.2354 26.3256 32.5915 26.5312 33.0567C30.0622 41.061 33.5726 49.0757 37.0882 57.0852C37.2115 57.3632 37.322 57.6465 37.4582 57.9766L37.4531 57.974Z" fill="black"/>
<path d="M124.139 39.2757V45.3023H140.869L137.564 57.9897H109.897L109.864 10.073H136.942L139.376 21.7884C139.376 21.7884 125.178 21.8014 124.144 21.8014V27.3186H134.267L134.319 39.2731H124.134L124.139 39.2757Z" fill="black"/>
<path d="M81.6881 21.2244H69.9001L71.9252 10.0496L102.823 10.2549L104.501 21.2894L94.3241 21.3024V57.8649L81.6264 57.9584L81.6881 21.2244Z" fill="black"/>
<path d="M53.6304 1.74381e-05C60.4893 -0.0155754 66.3537 4.75582 67.7183 11.5387C68.8568 17.1937 66.436 23.0046 61.4684 26.2401C54.6814 30.6607 45.5944 28.605 41.3182 21.6818C36.767 14.3116 39.9536 4.48814 47.9895 1.1227C49.7961 0.366448 51.6721 -0.0233718 53.6304 1.74381e-05Z" fill="#DB3830"/>
<path d="M47.0155 28.6752C51.4485 30.2448 55.8327 30.2994 60.1989 28.6856V57.9273H46.9667C46.9667 57.9273 46.869 29.855 47.0155 28.6752Z" fill="black"/>
</g>
<defs>
<clipPath id="clip0_290_5339">
<rect width="189" height="58" fill="white"/>
</clipPath>
</defs>
</svg>
