<svg width="164" height="59" viewBox="0 0 164 59" fill="none" xmlns="http://www.w3.org/2000/svg">
<rect width="164" height="59" fill="#ED2027"/>
<path d="M125.914 16.4326H136.406C140.267 27.4318 148.001 49.466 148.001 49.466H138.607L136.737 45.1485H125.383L123.891 49.5001H114.73L114.671 49.4517L114.662 49.4105L114.693 49.242L125.828 16.5885L125.912 16.4326H125.914ZM131.27 27.5591L131.169 27.568L128.202 36.5796H134.041L131.271 27.5591H131.27Z" fill="white"/>
<path d="M42.1577 49.4822H32.7618C29.9924 44.6305 27.4115 39.4329 25.0764 34.2819C25.0764 34.2819 25.0082 49.2832 25.0082 49.4768H16V16.4989C16.3267 16.3968 24.4751 16.3824 25.0567 16.4864C25.0638 20.8344 25.071 25.1933 25.08 29.5539C25.1177 29.5628 25.1536 29.5736 25.1913 29.5825C27.485 25.2004 29.7788 20.8183 32.078 16.4272H41.8167C41.7323 16.6136 41.6677 16.7696 41.5941 16.9201C39.2483 21.7539 36.9061 26.5912 34.5513 31.4196C34.3987 31.7315 34.3861 31.977 34.5297 32.2978C36.9958 37.818 39.4475 43.3454 41.9028 48.8692C41.989 49.061 42.0662 49.2563 42.1613 49.484L42.1577 49.4822Z" fill="white"/>
<path d="M102.701 36.5866V40.7429H114.385L112.077 49.4928H92.7538L92.7305 16.4468H111.642L113.342 24.5264C113.342 24.5264 103.426 24.5353 102.704 24.5353V28.3403H109.774L109.81 36.5848H102.697L102.701 36.5866Z" fill="white"/>
<path d="M73.0512 24.1374H64.8184L66.2327 16.4307L87.8118 16.5723L88.9838 24.1823L81.8763 24.1912V49.4067L73.0081 49.4713L73.0512 24.1374Z" fill="white"/>
<path d="M53.4557 9.49995C58.2461 9.4892 62.3418 12.7798 63.2949 17.4577C64.09 21.3576 62.3993 25.3652 58.9299 27.5966C54.1898 30.6452 47.8433 29.2275 44.8567 24.4529C41.6781 19.37 43.9037 12.5952 49.5161 10.2742C50.7778 9.75266 52.088 9.48382 53.4557 9.49995Z" fill="white"/>
<path d="M48.8357 29.2759C51.9317 30.3584 54.9937 30.3961 58.0431 29.283V49.4497H48.8016C48.8016 49.4497 48.7334 30.0896 48.8357 29.2759Z" fill="white"/>
</svg>
