<svg width="16" height="13" viewBox="0 0 16 13" fill="none" xmlns="http://www.w3.org/2000/svg">
<path d="M14.7656 1.30859C15.3398 1.52734 15.75 2.07422 15.75 2.70312V10.6875C15.75 11.125 15.5312 11.5625 15.1484 11.8359C14.7656 12.1094 14.2734 12.2188 13.8359 12.082C10.6094 11.207 8.3125 12.7109 8.20312 12.7656C8.09375 12.8477 7.92969 12.875 7.84766 12.875C7.73828 12.875 7.60156 12.8477 7.49219 12.7656C7.41016 12.7109 5.11328 11.207 1.88672 12.082C1.42188 12.2188 0.929688 12.1094 0.546875 11.8359C0.191406 11.5625 0 11.125 0 10.6875V2.70312C0 2.07422 0.382812 1.52734 0.957031 1.30859C2.24219 0.84375 3.41797 0.625 4.51172 0.652344C6.09766 0.652344 7.30078 1.11719 7.875 1.39062C8.42188 1.11719 9.625 0.652344 11.2109 0.652344C12.2773 0.625 13.4805 0.84375 14.7656 1.30859ZM7.21875 11.1523V2.53906C6.72656 2.32031 5.76953 1.96484 4.48438 1.96484C3.58203 1.9375 2.51562 2.15625 1.39453 2.53906C1.33984 2.56641 1.3125 2.62109 1.3125 2.70312V10.6875C1.3125 10.6875 1.3125 10.7422 1.36719 10.7969C1.36719 10.7969 1.44922 10.8516 1.53125 10.8242C2.37891 10.5781 3.17188 10.4961 3.88281 10.4961C5.30469 10.4961 6.45312 10.8516 7.21875 11.1523ZM14.4375 10.6875V2.70312C14.4375 2.62109 14.3828 2.56641 14.3281 2.53906C13.207 2.15625 12.1406 1.9375 11.2383 1.96484C9.95312 1.96484 8.99609 2.32031 8.50391 2.53906V11.1523C9.67969 10.6875 11.7031 10.1406 14.1914 10.8242C14.2734 10.8516 14.3555 10.7969 14.3828 10.7969C14.4375 10.7422 14.4375 10.6875 14.4375 10.6875Z" fill="white"/>
</svg>
