<svg width="17" height="15" viewBox="0 0 17 15" fill="none" xmlns="http://www.w3.org/2000/svg">
<path d="M14.207 6.875C13.6602 6.875 13.168 6.71094 12.7852 6.41016C12.6484 6.32812 12.5391 6.21875 12.4297 6.08203C12.3203 6.21875 12.2109 6.32812 12.0742 6.41016C11.6641 6.71094 11.1719 6.875 10.6523 6.875C10.1055 6.875 9.61328 6.71094 9.23047 6.41016C9.09375 6.32812 8.95703 6.21875 8.84766 6.08203C8.73828 6.21875 8.62891 6.32812 8.49219 6.41016C8.10938 6.71094 7.61719 6.875 7.07031 6.875C6.55078 6.875 6.05859 6.71094 5.64844 6.41016C5.51172 6.32812 5.40234 6.21875 5.29297 6.08203C5.18359 6.21875 5.07422 6.32812 4.9375 6.41016C4.52734 6.71094 4.03516 6.875 3.51562 6.875C3.40625 6.875 3.29688 6.875 3.1875 6.875C1.65625 6.65625 0.945312 4.87891 1.76562 3.59375L3.32422 1.13281C3.46094 0.886719 3.70703 0.75 3.98047 0.75H13.7422C14.0156 0.75 14.2617 0.886719 14.3984 1.13281L15.957 3.59375C16.7773 4.87891 16.0664 6.65625 14.5352 6.875C14.4258 6.875 14.3164 6.875 14.207 6.875ZM13.4414 2.0625H4.28125L2.85938 4.30469C2.72266 4.55078 2.69531 4.85156 2.80469 5.125C2.91406 5.37109 3.10547 5.53516 3.35156 5.5625C3.40625 5.5625 3.46094 5.5625 3.51562 5.5625C3.84375 5.5625 4.11719 5.42578 4.30859 5.20703C4.58203 4.93359 4.91016 4.76953 5.29297 4.76953C5.67578 4.76953 6.03125 4.93359 6.27734 5.20703C6.46875 5.42578 6.74219 5.5625 7.07031 5.5625C7.39844 5.5625 7.67188 5.42578 7.89062 5.20703C8.13672 4.93359 8.49219 4.76953 8.84766 4.76953C9.23047 4.76953 9.58594 4.93359 9.83203 5.20703C10.0234 5.42578 10.3242 5.5625 10.6523 5.5625C10.9531 5.5625 11.2539 5.42578 11.4453 5.20703C11.6914 4.93359 12.0469 4.76953 12.4297 4.76953C12.7852 4.76953 13.1406 4.93359 13.3867 5.20703C13.6055 5.42578 13.8789 5.5625 14.207 5.5625C14.2617 5.5625 14.3164 5.5625 14.3711 5.5625C14.6172 5.53516 14.8086 5.37109 14.918 5.125C15.0273 4.85156 15 4.55078 14.8633 4.30469L13.4414 2.0625ZM13.6875 9.9375V7.72266C13.8516 7.75 14.0156 7.75 14.207 7.75C14.3711 7.75 14.5078 7.75 14.6445 7.72266C14.7539 7.72266 14.8906 7.69531 15 7.66797V13C15 13.9844 14.207 14.75 13.25 14.75H4.5C3.51562 14.75 2.75 13.9844 2.75 13V7.66797C2.83203 7.69531 2.94141 7.72266 3.05078 7.72266H3.07812C3.21484 7.75 3.35156 7.75 3.51562 7.75C3.70703 7.75 3.87109 7.75 4.0625 7.72266V9.9375H13.6875ZM13.6875 11.25H4.0625V13C4.0625 13.2461 4.25391 13.4375 4.5 13.4375H13.25C13.4688 13.4375 13.6875 13.2461 13.6875 13V11.25Z" fill="#E30613"/>
</svg>
