<svg width="72" height="72" viewBox="0 0 72 72" fill="none" xmlns="http://www.w3.org/2000/svg">
<rect x="1.5" y="1.5" width="69" height="69" rx="34.5" stroke="#979797" stroke-width="3"/>
<path d="M36.7031 25.3906L33.8203 28.625L30.7266 25.3906C27.9141 22.5781 23.4844 22.2266 20.6719 24.6172C17.2266 27.5703 17.0859 32.8438 20.1094 36.0078L33.75 50L34.6641 49.0859C34.9453 49.8594 35.2969 50.5625 35.7188 51.1953L35.3672 51.6172C34.4531 52.5312 32.9766 52.5312 32.1328 51.6172L18.4922 37.5547C14.5547 33.4766 14.7656 26.7266 19.1953 22.9297C22.9219 19.6953 28.6875 20.2578 32.2031 23.7031C32.2734 23.7734 32.2734 23.7734 32.3438 23.8438L33.75 25.3203L35.0859 23.8438C35.1562 23.7734 35.2266 23.7031 35.2969 23.6328C38.8125 20.2578 44.4375 19.6953 48.3047 22.9297C51.3281 25.6016 52.3125 29.6094 51.3984 33.1953C50.6953 32.9141 49.9922 32.6328 49.2188 32.4219C49.9219 29.6797 49.0781 26.6562 46.8281 24.6172C43.875 22.2266 39.5156 22.5781 36.7031 25.3906ZM50.8359 41.3516C51.2578 41.7734 51.2578 42.5469 50.8359 42.9688L45.7734 48.0312C45.3516 48.4531 44.5781 48.4531 44.1562 48.0312L41.3438 45.2188C40.9219 44.7969 40.9219 44.0234 41.3438 43.6016C41.7656 43.1797 42.5391 43.1797 42.9609 43.6016L45 45.6406L49.2188 41.3516C49.6406 40.9297 50.4141 40.9297 50.8359 41.3516ZM36 44.375C36 38.8203 40.5 34.25 46.125 34.25C51.6797 34.25 56.25 38.8203 56.25 44.375C56.25 50 51.6797 54.5 46.125 54.5C40.5 54.5 36 50 36 44.375ZM46.125 52.25C50.4141 52.25 54 48.7344 54 44.375C54 40.0859 50.4141 36.5 46.125 36.5C41.7656 36.5 38.25 40.0859 38.25 44.375C38.25 48.7344 41.7656 52.25 46.125 52.25Z" fill="#E30613"/>
</svg>
