<svg width="72" height="72" viewBox="0 0 72 72" fill="none" xmlns="http://www.w3.org/2000/svg">
<rect x="1.5" y="1.5" width="69" height="69" rx="34.5" stroke="#979797" stroke-width="3"/>
<path d="M18.5625 24.6875C18.5625 22.5781 20.3203 20.75 22.5 20.75C24.6094 20.75 26.4375 22.5781 26.4375 24.6875C26.4375 26.8672 24.6094 28.625 22.5 28.625C20.3203 28.625 18.5625 26.8672 18.5625 24.6875ZM22.5 26.375C23.4141 26.375 24.1875 25.6719 24.1875 24.6875C24.1875 23.7734 23.4141 23 22.5 23C21.5156 23 20.8125 23.7734 20.8125 24.6875C20.8125 25.6719 21.5156 26.375 22.5 26.375ZM13.5 38.1875C13.5 34.1797 16.7344 30.875 20.8125 30.875H24.1875C25.1016 30.875 26.0156 31.0859 26.7891 31.4375C27.4219 31.6484 27.7031 32.2812 27.4219 32.8438C27.2109 33.4766 26.5781 33.7578 26.0156 33.4766C25.4531 33.2656 24.8203 33.125 24.1875 33.125H20.8125C20.6016 33.125 20.3906 33.1953 20.25 33.1953V47.75H24.75V45.5C24.75 44.9375 25.2422 44.375 25.875 44.375C26.4375 44.375 27 44.9375 27 45.5V48.3125C27 49.2969 26.2266 50 25.3125 50H19.6875C18.7031 50 18 49.2969 18 48.3125V44.9375C15.3281 43.8828 13.5 41.2812 13.5 38.1875ZM18 42.4062V34.0391C16.5938 34.8828 15.75 36.4297 15.75 38.1875C15.75 39.9453 16.5938 41.4922 18 42.4062ZM49.5 28.625C47.3203 28.625 45.5625 26.8672 45.5625 24.6875C45.5625 22.5781 47.3203 20.75 49.5 20.75C51.6094 20.75 53.4375 22.5781 53.4375 24.6875C53.4375 26.8672 51.6094 28.625 49.5 28.625ZM51.1875 24.6875C51.1875 23.7734 50.4141 23 49.5 23C48.5156 23 47.8125 23.7734 47.8125 24.6875C47.8125 25.6719 48.5156 26.375 49.5 26.375C50.4141 26.375 51.1875 25.6719 51.1875 24.6875ZM54 44.9375V48.3125C54 49.2969 53.2266 50 52.3125 50H46.6875C45.7031 50 45 49.2969 45 48.3125V45.5C45 44.9375 45.4922 44.375 46.125 44.375C46.6875 44.375 47.25 44.9375 47.25 45.5V47.75H51.75V33.1953C51.5391 33.1953 51.3281 33.125 51.1875 33.125H47.8125C47.1094 33.125 46.4766 33.2656 45.9141 33.4766C45.3516 33.7578 44.7188 33.4766 44.5078 32.8438C44.2266 32.2812 44.5078 31.6484 45.1406 31.4375C45.9141 31.0859 46.8281 30.875 47.8125 30.875H51.1875C55.1953 30.875 58.5 34.1797 58.5 38.1875C58.5 41.2812 56.6016 43.8828 54 44.9375ZM56.25 38.1875C56.25 36.4297 55.3359 34.8828 54 34.0391V42.4062C55.3359 41.4922 56.25 39.9453 56.25 38.1875ZM40.5 25.25C40.5 27.7812 38.4609 29.75 36 29.75C33.4688 29.75 31.5 27.7812 31.5 25.25C31.5 22.7891 33.4688 20.75 36 20.75C38.4609 20.75 40.5 22.7891 40.5 25.25ZM36 23C34.7344 23 33.75 24.0547 33.75 25.25C33.75 26.5156 34.7344 27.5 36 27.5C37.1953 27.5 38.25 26.5156 38.25 25.25C38.25 24.0547 37.1953 23 36 23ZM37.125 32C41.1328 32 44.4375 35.3047 44.4375 39.3125C44.4375 42.1953 42.8203 44.5859 40.5 45.8516V50.5625C40.5 51.5469 39.7266 52.25 38.8125 52.25H33.1875C32.2031 52.25 31.5 51.5469 31.5 50.5625V45.8516C29.1094 44.5859 27.5625 42.1953 27.5625 39.3125C27.5625 35.3047 30.7969 32 34.875 32H37.125ZM29.8125 39.3125C29.8125 40.8594 30.4453 42.1953 31.5 43.1094V35.5859C30.4453 36.5 29.8125 37.8359 29.8125 39.3125ZM38.25 50V34.3906C37.8281 34.3203 37.4766 34.25 37.125 34.25H34.875C34.4531 34.25 34.1016 34.3203 33.75 34.3906V50H38.25ZM42.1875 39.3125C42.1875 37.8359 41.4844 36.5 40.5 35.5859V43.1094C41.4844 42.1953 42.1875 40.8594 42.1875 39.3125Z" fill="#E30613"/>
</svg>
