<svg width="72" height="72" viewBox="0 0 72 72" fill="none" xmlns="http://www.w3.org/2000/svg">
<rect x="1.5" y="1.5" width="69" height="69" rx="34.5" stroke="#979797" stroke-width="3"/>
<path d="M50.625 52.25C51.1875 52.25 51.75 52.8125 51.6797 53.375C51.6797 54.0078 51.1172 54.5 50.5547 54.5H21.3047C20.6719 54.5 20.1797 54.0078 20.1797 53.375C20.1797 52.8125 20.6719 52.25 21.3047 52.25H34.7344V27.3594C32.8359 26.8672 31.4297 25.1094 31.4297 23H21.3047C20.6719 23 20.1797 22.5078 20.1797 21.875C20.1797 21.3125 20.6719 20.75 21.3047 20.75H32.1328C32.1328 20.75 32.4141 19.9766 33.4688 19.2734C34.1719 18.7812 35.0156 18.5 36 18.5C36.9141 18.5 37.7578 18.7812 38.3906 19.2734C39.4453 19.9766 39.7266 20.75 39.7969 20.8203H50.5547C51.1172 20.8203 51.6797 21.3125 51.6797 21.9453C51.6797 22.5078 51.1172 23.0703 50.5547 23.0703H40.4297C40.4297 25.1094 39.0234 26.8672 37.125 27.3594V52.25H50.625ZM33.6797 23C33.6797 24.2656 34.7344 25.25 36 25.25C37.1953 25.25 38.1797 24.2656 38.1797 23C38.1797 21.8047 37.125 20.75 35.9297 20.75C34.6641 20.75 33.6797 21.8047 33.6797 23ZM58.0781 38.1875C58.3594 38.5391 58.5 39.0312 58.4297 39.5234C58.0781 44.1641 54.2109 47.75 49.5 47.75C44.7188 47.75 40.8516 44.1641 40.5 39.4531C40.4297 38.9609 40.5703 38.4688 40.8516 38.1172L48.5156 25.8125C48.7266 25.4609 49.0781 25.25 49.5 25.25C49.8516 25.25 50.2031 25.4609 50.4141 25.8125L58.0781 38.1875ZM49.5 45.5C52.3828 45.5 54.9141 43.6719 55.8281 41H43.1016C44.0156 43.6016 46.5469 45.5 49.5 45.5ZM43.1016 38.75H55.8984L49.5 28.5547L43.1016 38.75ZM31.4297 39.5234C31.0781 44.1641 27.2109 47.75 22.4297 47.75C17.7188 47.75 13.8516 44.1641 13.5 39.5234C13.4297 39.0312 13.5703 38.5391 13.8516 38.1875L21.5156 25.8125C21.7266 25.4609 22.0781 25.25 22.4297 25.25C22.8516 25.25 23.2031 25.4609 23.4141 25.8125L31.0781 38.1875C31.3594 38.5391 31.5 39.0312 31.4297 39.5234ZM22.4297 28.5547L16.1016 38.75H28.8281L22.4297 28.5547ZM16.1016 41C17.0156 43.6016 19.5469 45.5 22.4297 45.5C25.3828 45.5 27.8438 43.6719 28.8281 41H16.1016Z" fill="#E30613"/>
</svg>
