<svg width="72" height="72" viewBox="0 0 72 72" fill="none" xmlns="http://www.w3.org/2000/svg">
<rect x="1.5" y="1.5" width="69" height="69" rx="34.5" stroke="#979797" stroke-width="3"/>
<path d="M26.5781 51.6875C26.5078 51.6875 26.4375 51.6875 26.4375 51.6875C22.9922 51.6875 20.25 48.9453 20.25 45.5C20.25 45.0078 20.25 44.4453 20.3906 43.9531C18.9141 42.7578 18 40.8594 18 38.75C18 36.9922 18.6328 35.375 19.7578 34.1797C19.6875 33.8984 19.6875 33.5469 19.6875 33.125C19.6875 31.0859 20.8125 29.2578 22.5 28.2734C22.5 28.2031 22.5 28.1328 22.5 28.0625C22.5 25.7422 23.9062 23.7031 26.0156 22.8594C26.5781 20.3984 28.8281 18.5 31.5 18.5C33.3281 18.5 34.9453 19.4141 36 20.75C36.9844 19.4141 38.6016 18.5 40.5 18.5C43.1016 18.5 45.3516 20.3984 45.9141 22.8594C48.0234 23.7031 49.5 25.7422 49.5 28.0625C49.5 28.1328 49.4297 28.2031 49.4297 28.2734C51.1172 29.2578 52.3125 31.0859 52.3125 33.125C52.3125 33.5469 52.2422 33.8984 52.1719 34.1797C53.2969 35.375 54 36.9922 54 38.75C54 40.8594 53.0156 42.7578 51.5391 43.9531C51.6797 44.4453 51.75 45.0078 51.75 45.5C51.75 48.9453 48.9375 51.6875 45.5625 51.6875C45.4922 51.6875 45.4219 51.6875 45.3516 51.6875C44.3672 53.375 42.5391 54.5 40.5 54.5C38.6016 54.5 36.9844 53.6562 36 52.25C34.9453 53.6562 33.3281 54.5 31.5 54.5C29.3906 54.5 27.5625 53.375 26.5781 51.6875ZM31.5 20.75C29.7422 20.75 28.2656 22.1562 28.125 23.8438L28.0547 24.6172L27.2812 24.8281C25.8047 25.1797 24.75 26.5156 24.75 28.0625C24.75 28.3438 24.75 28.5547 24.75 28.7656L24.9609 29.6797L24.0469 30.0312C22.7812 30.4531 21.8672 31.7188 21.8672 33.125C21.8672 33.5469 21.9375 33.8984 22.0781 34.1797L22.2891 34.8828L21.7266 35.375C20.8125 36.2188 20.1797 37.4141 20.1797 38.75C20.1797 40.3672 21.0938 41.7734 22.3594 42.6172L23.1328 43.1094L22.7812 44.0234C22.5703 44.4453 22.4297 45.0078 22.4297 45.5C22.4297 47.6797 24.2578 49.4375 26.3672 49.4375C26.6484 49.4375 26.8594 49.4375 27.0703 49.4375L27.9844 49.2266L28.3359 50.1406C28.8281 51.4062 30.0234 52.25 31.4297 52.25C33.3281 52.25 34.8047 50.7734 34.8047 48.875V39.875H31.4297C30.9375 39.875 30.5156 40.2266 30.375 40.7188C31.3594 41.1406 31.9922 42.125 31.9922 43.25C31.9922 44.8672 30.7969 46.0625 29.1797 46.0625C27.6328 46.0625 26.3672 44.8672 26.3672 43.25C26.3672 42.125 27.0703 41.1406 28.125 40.7188C28.2656 38.9609 29.7422 37.625 31.4297 37.625H34.8047V29.75H32.9062C32.4844 30.8047 31.5 31.4375 30.3047 31.4375C28.7578 31.4375 27.4922 30.2422 27.4922 28.625C27.4922 27.0781 28.7578 25.8125 30.3047 25.8125C31.5 25.8125 32.4844 26.5156 32.9062 27.5H34.8047V24.125C34.8047 22.2969 33.3281 20.75 31.4297 20.75H31.5ZM37.125 43.25H41.2734C41.6953 42.2656 42.6797 41.5625 43.875 41.5625C45.4219 41.5625 46.6875 42.8281 46.6875 44.375C46.6875 45.9922 45.4219 47.1875 43.875 47.1875C42.6797 47.1875 41.6953 46.5547 41.2734 45.5H37.125V48.875C37.125 50.7734 38.6016 52.25 40.5 52.25C41.9062 52.25 43.1016 51.4062 43.5938 50.1406L43.9453 49.2266L44.8594 49.4375C45.0703 49.4375 45.2812 49.4375 45.5625 49.4375C47.6719 49.4375 49.5 47.6797 49.5 45.5C49.5 45.0078 49.3594 44.4453 49.1484 44.0234L48.7969 43.1094L49.5703 42.6172C50.8359 41.7734 51.75 40.3672 51.75 38.75C51.75 37.4141 51.1172 36.2188 50.2031 35.375L49.6406 34.8828L49.8516 34.1797C49.9922 33.8984 50.0625 33.5469 50.0625 33.125C50.0625 31.7188 49.1484 30.4531 47.8828 30.0312L46.9688 29.6797L47.1797 28.7656C47.1797 28.5547 47.25 28.3438 47.25 28.0625C47.25 26.5156 46.125 25.1797 44.6484 24.8281L43.875 24.6172L43.8047 23.8438C43.6641 22.1562 42.1875 20.75 40.5 20.75C38.6016 20.75 37.125 22.2969 37.125 24.125V27.5H40.5C42.3281 27.5 43.875 29.0469 43.875 30.875V31.7188C44.8594 32.1406 45.5625 33.125 45.5625 34.25C45.5625 35.8672 44.2969 37.0625 42.75 37.0625C41.1328 37.0625 39.9375 35.8672 39.9375 34.25C39.9375 33.125 40.5703 32.1406 41.625 31.7188V30.875C41.625 30.3125 41.0625 29.75 40.5 29.75H37.125V43.25ZM30.375 29.75C30.9375 29.75 31.5 29.2578 31.5 28.625C31.5 28.0625 30.9375 27.5 30.375 27.5C29.7422 27.5 29.25 28.0625 29.25 28.625C29.25 29.2578 29.7422 29.75 30.375 29.75ZM29.25 44.375C29.8125 44.375 30.375 43.8828 30.375 43.25C30.375 42.6875 29.8125 42.125 29.25 42.125C28.6172 42.125 28.125 42.6875 28.125 43.25C28.125 43.8828 28.6172 44.375 29.25 44.375ZM43.875 34.25C43.875 33.6875 43.3125 33.125 42.75 33.125C42.1172 33.125 41.625 33.6875 41.625 34.25C41.625 34.8828 42.1172 35.375 42.75 35.375C43.3125 35.375 43.875 34.8828 43.875 34.25ZM43.875 45.5C44.4375 45.5 45 45.0078 45 44.375C45 43.8125 44.4375 43.25 43.875 43.25C43.2422 43.25 42.75 43.8125 42.75 44.375C42.75 45.0078 43.2422 45.5 43.875 45.5Z" fill="#E30613"/>
</svg>
