<svg width="72" height="72" viewBox="0 0 72 72" fill="none" xmlns="http://www.w3.org/2000/svg">
<rect x="1.5" y="1.5" width="69" height="69" rx="34.5" stroke="#979797" stroke-width="3"/>
<path d="M48.375 20.75C48.9375 20.75 49.5 21.3125 49.5 21.875V25.25H52.875C53.4375 25.25 54 25.8125 54 26.375C54 27.0078 53.4375 27.5 52.875 27.5H49.5V30.875C49.5 31.5078 48.9375 32 48.375 32C47.7422 32 47.25 31.5078 47.25 30.875V27.5H43.875C43.2422 27.5 42.75 27.0078 42.75 26.375C42.75 25.8125 43.2422 25.25 43.875 25.25H47.25V21.875C47.25 21.3125 47.7422 20.75 48.375 20.75ZM48.375 41C48.9375 41 49.5 41.5625 49.5 42.125V45.5H52.875C53.4375 45.5 54 46.0625 54 46.625C54 47.2578 53.4375 47.75 52.875 47.75H49.5V51.125C49.5 51.7578 48.9375 52.25 48.375 52.25C47.7422 52.25 47.25 51.7578 47.25 51.125V47.75H43.875C43.2422 47.75 42.75 47.2578 42.75 46.625C42.75 46.0625 43.2422 45.5 43.875 45.5H47.25V42.125C47.25 41.5625 47.7422 41 48.375 41ZM26.6484 41.1406L18.6328 37.4844C18.2109 37.2734 18 36.8516 18 36.4297C18 36.0078 18.2109 35.5859 18.6328 35.375L26.6484 31.7188L30.375 23.7031C30.5156 23.2812 30.9375 23 31.3594 23C31.7812 23 32.2031 23.2812 32.4141 23.7031L36.0703 31.7188L44.0859 35.375C44.5078 35.5859 44.7891 36.0078 44.7891 36.4297C44.7891 36.8516 44.5078 37.2734 44.0859 37.4844L36.0703 41.1406L32.4141 49.1562C32.2031 49.5781 31.7812 49.8594 31.3594 49.8594C30.9375 49.8594 30.5156 49.5781 30.375 49.1562L26.6484 41.1406ZM21.7969 36.4297L27.5625 39.1016C28.0547 39.3125 28.4766 39.7344 28.6875 40.2266L31.3594 45.9922L34.0312 40.2266C34.2422 39.7344 34.6641 39.3125 35.1562 39.1016L40.9219 36.4297L35.1562 33.7578C34.6641 33.5469 34.2422 33.125 34.0312 32.6328L31.3594 26.8672L28.6875 32.6328C28.4766 33.125 28.0547 33.5469 27.5625 33.7578L21.7969 36.4297Z" fill="#E30613"/>
</svg>
